# xmcd
#
# Track frame offsets:
#	150
#	18042
#	36666
#	63426
#	78223
#	103211
#	118578
#	137536
#	165409
#	183080
#	203099
#	216233
#	233444
#	257585
#
# Disc length: 3773 seconds
#
# Revision: 1
# Processed by: cddbd v1.5.2PL0 Copyright (c) Steve Scherf et al.
# Submitted via: audiograbber 1.83.01
#
DISCID=b10ebb0e
DTITLE=Eric Clapton - Clapton
DYEAR=2010
DGENRE=Blues
TTITLE0=Travelin Alone
TTITLE1=Rocking Chair
TTITLE2=River Runs Deep
TTITLE3=Judgment Day
TTITLE4=How Deep Is the Ocean
TTITLE5=My Very Good Friend the Milkman
TTITLE6=Crazy About You Baby
TTITLE7=That's No Way to Get Along
TTITLE8=Everything Will Be Alright
TTITLE9=Diamonds Made from Rain
TTITLE10=When Somebody Thinks You're Wonderful
TTITLE11=Hard Times Blues
TTITLE12=Run Back to Your Side
TTITLE13=Autumn Leaves
EXTD=
EXTT0=
EXTT1=
EXTT2=
EXTT3=
EXTT4=
EXTT5=
EXTT6=
EXTT7=
EXTT8=
EXTT9=
EXTT10=
EXTT11=
EXTT12=
EXTT13=
PLAYORDER=
